<svg width="1024" height="562" viewBox="0 0 1024 562" fill="none" xmlns="http://www.w3.org/2000/svg">
<path d="M73.3351 533.274C74.9409 529.345 72.1606 525.247 72.617 523.071C73.0397 520.89 76.4923 514.107 71.7895 510.445L71.5894 510.292C66.7776 506.768 61.2134 511.949 59.2177 512.943C57.2361 513.958 52.5373 512.407 49.1865 515.036C45.8356 517.665 46.7619 522.416 52.4738 524.336C58.1519 526.252 60.3547 528.145 63.4798 532.679C66.868 537.618 71.7096 537.218 73.3351 533.274Z" fill="#EAD6B9"/>
<path d="M59.4952 498.626C58.3784 501.994 55.7756 504.172 53.6907 503.473C51.6057 502.775 50.821 499.5 51.9378 496.132C53.0687 492.784 55.6715 490.606 57.7565 491.304C59.8273 491.983 60.6261 495.278 59.4952 498.626Z" fill="#EAD6B9"/>
<path d="M90.3421 526.263C87.4749 528.363 84.1245 528.639 82.8185 526.872C81.5125 525.105 82.7652 521.966 85.5987 519.86C88.4659 517.76 91.8359 517.47 93.1419 519.237C94.4479 521.004 93.1952 524.142 90.3421 526.263Z" fill="#EAD6B9"/>
<path d="M77.8402 496.068C76.0756 499.696 72.7078 501.681 70.3173 500.519C67.9268 499.356 67.395 495.482 69.1737 491.874C70.9187 488.261 74.2865 486.275 76.6966 487.423C79.0871 488.586 79.5852 492.455 77.8402 496.068Z" fill="#EAD6B9"/>
<path d="M90.3451 507.766C87.5122 510.616 83.6923 511.439 81.7986 509.56C79.8854 507.696 80.6433 503.872 83.4621 501.002C86.2808 498.133 90.1148 497.329 92.0281 499.194C93.9076 501.053 93.1638 504.896 90.3451 507.766Z" fill="#EAD6B9"/>
<g opacity="0.5">
<path d="M159.434 507.658C161.04 503.729 158.259 499.631 158.716 497.455C159.138 495.273 162.591 488.491 157.888 484.829L157.688 484.676C152.876 481.152 147.312 486.332 145.316 487.327C143.335 488.341 138.636 486.791 135.285 489.42C131.934 492.048 132.861 496.8 138.572 498.72C144.251 500.635 146.453 502.529 149.578 507.062C152.967 512.001 157.808 511.602 159.434 507.658Z" fill="#EAD6B9"/>
<path d="M145.594 473.01C144.477 476.378 141.874 478.555 139.789 477.857C137.704 477.159 136.92 473.884 138.036 470.516C139.167 467.168 141.77 464.99 143.855 465.688C145.926 466.367 146.725 469.661 145.594 473.01Z" fill="#EAD6B9"/>
<path d="M176.441 500.647C173.574 502.747 170.223 503.023 168.917 501.256C167.611 499.489 168.864 496.35 171.697 494.244C174.565 492.144 177.935 491.854 179.241 493.621C180.547 495.388 179.294 498.526 176.441 500.647Z" fill="#EAD6B9"/>
<path d="M163.939 470.452C162.174 474.08 158.806 476.065 156.416 474.903C154.025 473.74 153.494 469.866 155.272 466.258C157.017 462.645 160.385 460.659 162.795 461.807C165.186 462.97 165.684 466.839 163.939 470.452Z" fill="#EAD6B9"/>
<path d="M176.444 482.15C173.611 485 169.791 485.823 167.897 483.944C165.984 482.08 166.742 478.256 169.561 475.386C172.379 472.517 176.213 471.713 178.127 473.578C180.006 475.437 179.262 479.28 176.444 482.15Z" fill="#EAD6B9"/>
</g>
<path d="M879.671 38.3654C879.85 37.6448 880.874 37.6448 881.052 38.3654L885.853 57.7402C885.917 57.9977 886.119 58.1984 886.376 58.2607L905.961 62.9927C906.687 63.1681 906.687 64.2006 905.961 64.376L886.376 69.108C886.119 69.1703 885.917 69.371 885.853 69.6285L881.052 89.0033C880.874 89.7239 879.85 89.7239 879.671 89.0033L874.871 69.6285C874.807 69.371 874.605 69.1703 874.347 69.108L854.762 64.376C854.036 64.2006 854.036 63.1681 854.762 62.9927L874.347 58.2607C874.605 58.1984 874.807 57.9977 874.871 57.7402L879.671 38.3654Z" fill="white"/>
<path d="M821.323 24.1715C821.5 23.4482 822.528 23.4482 822.705 24.1715L825.828 36.9343C825.891 37.1921 826.092 37.3933 826.35 37.4564L839.113 40.5791C839.836 40.756 839.836 41.7845 839.113 41.9614L826.35 45.0841C826.092 45.1472 825.891 45.3484 825.828 45.6062L822.705 58.369C822.528 59.0922 821.5 59.0922 821.323 58.369L818.2 45.6062C818.137 45.3484 817.936 45.1472 817.678 45.0841L804.915 41.9614C804.192 41.7845 804.192 40.756 804.915 40.5791L817.678 37.4564C817.936 37.3933 818.137 37.1921 818.2 36.9343L821.323 24.1715Z" fill="white"/>
<path d="M757.747 89.9482C722.957 103.931 718.213 144.387 713.622 183.507C710.741 208.032 707.976 231.665 697.478 246.586L696.431 240.826C704.66 226.515 707.163 205.152 709.725 183.025C714.25 144.632 719.354 101.134 756.333 86.3173L756.442 86.2579C804.53 70.1353 834.436 108.497 866.063 149.125C880.021 166.979 894.412 185.469 910.975 200.191C928.064 215.413 944.48 221.91 959.828 219.477C981.494 216.013 993.626 195.677 993.752 195.495L997.125 197.461C996.573 198.355 983.928 219.578 960.449 223.331C943.904 225.942 926.361 219.135 908.374 203.124C891.563 188.129 877.029 169.507 863.005 151.506C847.169 131.176 832.216 111.995 815.342 99.7096C796.731 86.1531 778.426 83.0145 757.747 89.9482Z" fill="#E43F6F"/>
<path d="M-67.339 474.019C-49.4495 411.838 -37.6321 561.59 126.399 556.283C227.85 553.001 241.181 456.523 299.604 411.063C358.028 365.602 535.991 417.3 607.61 353.864C638.727 326.303 678.846 279.663 695.205 248.22M695.205 248.22C696.669 245.406 697.943 242.713 699.003 240.167L697.664 241.565L695.205 248.22Z" stroke="#E43F6F" stroke-width="2.84623" stroke-linecap="round" stroke-linejoin="round"/>
<path d="M990.337 206.091L990.376 206.084C960.532 201.003 938.345 174.73 939.007 143.862L938.975 143.907C934.128 118.961 950.624 108.658 951.057 108.421C955.387 102.554 960.736 97.494 966.794 93.4951C977.352 86.5346 990.112 82.7439 1003.71 83.3629C1012.75 83.7802 1021.28 86.1563 1028.88 90.0094C1036.45 93.8696 1043.14 99.2767 1048.48 105.763C1057.99 111.77 1059.2 124.8 1059.2 124.8C1068.56 140.077 1062.02 153.845 1062.02 153.845L1062.01 153.807C1059.58 170.992 1050.16 185.76 1036.83 195.367C1031.32 199.307 1025.13 202.377 1018.47 204.382L1018.51 204.375C1018.51 204.375 1003.57 212.531 990.337 206.091Z" fill="#E43F6F"/>
<g style="mix-blend-mode:multiply" opacity="0.2">
<path d="M1056.53 125.761C1048.5 129.403 1041.11 134.12 1034.31 139.482C1030.88 142.168 1027.62 145.023 1024.52 148.047L1019.96 152.645L1015.78 157.609C1014.29 159.191 1013.15 161.024 1011.84 162.731C1010.53 164.477 1009.22 166.223 1008.13 168.087L1004.68 173.554L1001.6 179.311L1000.06 182.209C999.557 183.134 999.194 184.192 998.74 185.187L996.101 191.182L995.416 192.655L994.906 194.216L993.803 197.313C993.068 199.377 992.294 201.449 991.481 203.527C991.907 201.36 992.346 199.191 992.798 197.019L993.52 193.793L993.894 192.139L994.404 190.578C995.863 186.385 996.98 182.056 998.995 178.079C999.934 176.044 1000.83 173.977 1001.82 172.011L1005.17 166.205C1006.24 164.226 1007.62 162.428 1008.92 160.643C1010.26 158.852 1011.41 156.897 1012.94 155.27C1018.53 148.263 1025.29 142.234 1032.57 137.14C1039.91 132.116 1047.96 127.954 1056.53 125.761Z" fill="#606060"/>
</g>
<g style="mix-blend-mode:multiply" opacity="0.2">
<path d="M1057.91 132.929C1050.33 135.973 1043.33 140.222 1036.88 145.124C1030.49 150.096 1024.46 155.556 1019.47 161.977C1018.08 163.461 1017 165.164 1015.78 166.774C1014.57 168.383 1013.32 170 1012.33 171.767L1009.14 176.948L1006.35 182.335C1004.34 185.875 1003.06 189.757 1001.44 193.503C999.944 197.267 998.918 201.223 997.556 205.081C998.015 203.093 998.486 201.103 998.97 199.11L999.735 196.115L1000.1 194.621L1000.59 193.182L1002.67 187.408C1003.05 186.427 1003.35 185.459 1003.77 184.51L1005.09 181.731C1005.95 179.87 1006.79 177.971 1007.77 176.166L1010.9 170.876C1011.92 169.064 1013.16 167.409 1014.33 165.73C1015.57 164.075 1016.64 162.333 1018.07 160.804L1022.1 156.143L1026.51 151.81C1029.54 149.038 1032.66 146.329 1036.04 143.969C1039.41 141.57 1042.96 139.496 1046.53 137.537C1050.25 135.75 1053.99 134.039 1057.91 132.929Z" fill="#606060"/>
</g>
<g style="mix-blend-mode:multiply" opacity="0.2">
<path d="M1059.42 139.915C1052.5 142.404 1046.09 146.028 1040.17 150.358C1034.33 154.673 1028.83 159.522 1024.27 165.231C1023 166.533 1022.05 168.094 1020.93 169.528L1019.26 171.697C1018.72 172.43 1018.31 173.219 1017.81 173.983L1014.93 178.634L1012.4 183.536L1011.14 185.948C1010.73 186.776 1010.45 187.62 1010.09 188.479L1008 193.542C1006.67 196.956 1005.74 200.538 1004.5 204.016C1004.89 202.226 1005.31 200.431 1005.75 198.632C1006.21 196.841 1006.51 195.001 1007.15 193.259L1009.02 188.039C1009.33 187.149 1009.57 186.273 1009.97 185.407L1011.14 182.893C1011.9 181.207 1012.67 179.521 1013.52 177.859L1016.38 173.093C1016.87 172.329 1017.32 171.494 1017.85 170.723L1019.51 168.478L1021.12 166.24C1021.66 165.468 1022.24 164.728 1022.87 164.058L1026.59 159.889L1030.61 156.024C1033.38 153.577 1036.24 151.192 1039.37 149.195C1042.44 147.09 1045.72 145.302 1049.04 143.668C1052.41 142.142 1055.84 140.725 1059.42 139.915Z" fill="#606060"/>
</g>
<g style="mix-blend-mode:multiply" opacity="0.2">
<path d="M1058.99 149.516C1055.94 150.427 1053.02 151.593 1050.21 152.976C1048.84 153.702 1047.42 154.397 1046.05 155.161C1044.73 155.996 1043.36 156.722 1042.1 157.665C1036.98 161.173 1032.22 165.293 1028.39 170.195C1027.28 171.309 1026.5 172.681 1025.57 173.92C1024.66 175.198 1023.77 176.431 1023.03 177.834L1020.71 181.867L1018.83 186.136L1017.83 188.301C1017.57 189.024 1017.35 189.778 1017.08 190.5L1015.6 194.976C1014.67 197.961 1014.13 201.076 1013.29 204.123C1013.48 202.555 1013.7 200.994 1013.95 199.442C1014.22 197.885 1014.32 196.279 1014.72 194.739L1015.99 190.144C1016.2 189.352 1016.38 188.605 1016.64 187.844L1017.51 185.623C1018.07 184.132 1018.63 182.642 1019.28 181.175L1021.52 176.958C1022.25 175.477 1023.17 174.2 1024.11 172.876C1025.03 171.599 1025.85 170.181 1026.95 169.029C1030.95 164.015 1035.9 159.784 1041.32 156.457C1046.79 153.122 1052.76 150.609 1058.99 149.516Z" fill="#606060"/>
</g>
<g style="mix-blend-mode:multiply" opacity="0.2">
<path d="M940.196 144.454C943.666 149.14 947.667 153.252 952.076 156.775C956.517 160.252 961.304 163.23 966.551 165.251C967.78 165.901 969.145 166.208 970.461 166.683C971.77 167.119 973.125 167.587 974.514 167.81L978.616 168.77C979.997 168.943 981.392 169.125 982.802 169.318L984.918 169.608C985.599 169.643 986.311 169.633 987.037 169.699L991.314 169.873C994.177 169.908 997.022 169.629 999.969 169.688C997.169 170.435 994.323 171.151 991.429 171.598L987.02 172.003C986.276 172.059 985.539 172.153 984.827 172.164L982.586 172.056C981.109 172.007 979.632 171.958 978.142 171.832L973.76 171.082C972.255 170.879 970.862 170.418 969.431 169.965C968.031 169.465 966.551 169.179 965.2 168.512C959.642 166.309 954.541 162.912 950.271 158.849C945.995 154.746 942.413 149.883 940.196 144.454Z" fill="#606060"/>
</g>
<g style="mix-blend-mode:multiply" opacity="0.2">
<path d="M1048.49 105.76C1041.98 110.991 1034.23 114.622 1026.24 117.147C1018.21 119.679 1009.77 121.056 1001.31 121.207C999.218 121.27 997.116 121.057 995.011 121.043L991.852 120.904C990.797 120.778 989.743 120.652 988.689 120.527L982.457 119.637C980.388 119.167 978.342 118.68 976.32 118.175L973.248 117.424C972.242 117.131 971.261 116.754 970.249 116.423L964.352 114.321C960.46 112.768 956.742 110.866 953.031 109.001C957.077 110.09 960.949 111.529 964.918 112.631L970.933 114.076L973.89 114.848L976.92 115.368C978.936 115.689 980.956 116.035 982.981 116.408L989.042 117.011L992.114 117.325L995.144 117.408C997.172 117.436 999.229 117.618 1001.27 117.485L1007.37 117.247C1009.37 117.121 1011.42 116.789 1013.45 116.618C1015.49 116.485 1017.46 115.968 1019.47 115.682C1021.47 115.357 1023.44 114.84 1025.46 114.393C1033.36 112.44 1041.15 109.675 1048.49 105.76Z" fill="#606060"/>
</g>
<g style="mix-blend-mode:multiply" opacity="0.2">
<path d="M1001.95 121.007L1004.2 129.683C1004.95 132.509 1005.8 135.264 1006.73 137.95C1007.67 140.677 1008.81 143.285 1010.08 145.872C1011.34 148.459 1012.92 150.829 1014.62 153.416C1011.94 151.999 1009.5 149.904 1007.62 147.391C1005.78 144.909 1004.24 142.133 1003.23 139.183C1002.22 136.271 1001.59 133.213 1001.35 130.162C1001.11 127.11 1001.18 124.003 1001.95 121.007Z" fill="#606060"/>
</g>
<g style="mix-blend-mode:multiply" opacity="0.2">
<path d="M969.285 117.225C967.469 120.769 965.897 124.349 964.608 127.956C963.365 131.594 962.411 135.299 961.9 139.042C961.313 142.799 961.246 146.58 961.615 150.361C961.876 154.202 962.944 157.896 963.892 161.809C961.669 158.524 959.806 154.817 959.035 150.791C958.777 149.807 958.519 148.822 958.484 147.757L958.171 144.72C958.231 142.646 958.214 140.586 958.563 138.578C959.171 134.5 960.359 130.554 962.2 126.926C964.002 123.305 966.327 119.946 969.285 117.225Z" fill="#606060"/>
</g>
<g style="mix-blend-mode:multiply" opacity="0.2">
<path d="M1062.03 153.841C1056.59 156.219 1051.52 159.085 1046.84 162.357C1042.13 165.712 1037.82 169.511 1034.13 173.833C1030.38 178.124 1027.12 182.844 1024.65 188.053C1023.28 190.563 1022.35 193.273 1021.26 196.01C1020.62 197.315 1020.33 198.757 1019.87 200.15C1019.46 201.547 1019.02 202.95 1018.53 204.361C1018.61 202.892 1018.72 201.417 1018.88 199.934C1019.05 198.475 1019.09 196.959 1019.5 195.496C1020.21 192.63 1020.77 189.631 1022.02 186.866C1022.96 183.996 1024.52 181.413 1025.97 178.728C1026.68 177.408 1027.66 176.239 1028.5 174.975L1029.84 173.145L1031.35 171.403C1035.32 166.871 1040.04 162.919 1045.29 159.941C1050.5 156.97 1056.17 154.749 1062.03 153.841Z" fill="#606060"/>
</g>
<g style="mix-blend-mode:multiply" opacity="0.2">
<path d="M994.705 120.657C994.809 124.288 995.099 127.846 995.504 131.383C995.985 134.905 996.544 138.414 997.441 141.822C998.355 145.252 999.576 148.548 1001.1 151.709C1002.75 154.861 1004.74 157.752 1007.21 160.437C1004.29 158.311 1001.76 155.556 999.842 152.414C997.961 149.265 996.62 145.819 995.664 142.304C994.777 138.735 994.243 135.143 994.093 131.481C993.912 127.864 994.083 124.222 994.705 120.657Z" fill="#606060"/>
</g>
<g style="mix-blend-mode:multiply" opacity="0.2">
<path d="M982.297 120.057C982.244 122.169 982.147 124.25 982.133 126.355C982.112 128.422 982.098 130.527 982.154 132.58C982.234 136.731 982.436 140.899 982.901 144.981C983.372 149.1 984.151 153.164 985.338 157.074C985.938 159.068 986.755 160.943 987.757 162.744C988.689 164.598 989.908 166.281 991.297 167.813C987.904 165.296 985.589 161.512 983.997 157.556C982.443 153.593 981.599 149.383 981.075 145.194C980.628 140.99 980.495 136.769 980.722 132.562C980.949 128.355 981.382 124.19 982.297 120.057Z" fill="#606060"/>
</g>
<g style="mix-blend-mode:multiply" opacity="0.2">
<path d="M972.322 118.22C971.676 120.123 970.992 122.033 970.513 123.985C969.913 125.919 969.434 127.871 969.039 129.847C968.243 133.761 967.691 137.71 967.544 141.704C967.313 145.674 967.641 149.661 968.276 153.592L968.813 156.549L969.651 159.412L970.038 160.889L970.61 162.292C970.966 163.233 971.312 164.188 971.647 165.159C969.549 161.692 967.755 157.932 966.862 153.889C965.899 149.898 965.498 145.726 965.708 141.641C965.91 137.518 966.518 133.44 967.667 129.501C968.816 125.563 970.262 121.729 972.322 118.22Z" fill="#606060"/>
</g>
<g style="mix-blend-mode:multiply" opacity="0.2">
<path d="M988.919 120.915C989.021 123 989.083 125.091 989.261 127.161C989.363 129.246 989.548 131.354 989.764 133.418C990.197 137.544 990.707 141.657 991.523 145.714C992.34 149.771 993.419 153.74 994.945 157.549C995.692 159.476 996.655 161.285 997.804 163.02C998.876 164.769 1000.2 166.354 1001.76 167.775C998.142 165.537 995.542 161.924 993.663 158.139C991.74 154.323 990.556 150.214 989.725 146.081C988.926 141.901 988.441 137.705 988.354 133.515C988.221 129.294 988.326 125.07 988.919 120.915Z" fill="#606060"/>
</g>
<g style="mix-blend-mode:multiply" opacity="0.2">
<path d="M976.26 119.805C975.949 121.806 975.639 123.806 975.482 125.779C975.209 127.772 975.014 129.752 974.94 131.749C974.71 135.718 974.601 139.706 974.807 143.675C975.045 147.599 975.596 151.506 976.5 155.388C977.08 157.267 977.513 159.211 978.354 161.002C978.979 162.912 980.075 164.577 980.93 166.445C979.726 164.839 978.438 163.209 977.551 161.386C976.518 159.63 975.886 157.682 975.1 155.762C973.882 151.897 973.219 147.812 972.96 143.773C972.772 139.681 972.943 135.603 973.526 131.609C974.064 127.584 974.892 123.625 976.26 119.805Z" fill="#606060"/>
</g>
<g style="mix-blend-mode:multiply" opacity="0.2">
<path d="M1043.42 101.644C1037.45 105.904 1030.46 108.523 1023.37 110.329C1016.27 112.058 1008.89 112.687 1001.54 112.673L996.052 112.363C994.222 112.339 992.445 111.948 990.627 111.763C986.95 111.4 983.397 110.618 979.836 109.798C978.027 109.453 976.299 108.894 974.54 108.381L969.293 106.797C965.892 105.55 962.471 104.189 959.127 102.814C962.639 103.802 966.064 104.964 969.537 105.959L974.812 107.26C976.596 107.69 978.31 108.171 980.143 108.433C983.693 108.977 987.216 109.805 990.801 110.105C992.613 110.251 994.383 110.603 996.212 110.628L1001.61 110.837C1008.82 110.993 1016 110.361 1023.08 108.915C1024.84 108.555 1026.6 108.234 1028.33 107.682C1029.2 107.444 1030.07 107.207 1030.94 106.969L1033.51 106.065C1036.91 104.891 1040.26 103.488 1043.42 101.644Z" fill="#606060"/>
</g>
<g style="mix-blend-mode:multiply" opacity="0.2">
<path d="M1036.17 97.3671C1033.57 98.7534 1030.74 99.7835 1027.95 100.807C1025.09 101.683 1022.23 102.483 1019.28 103.098C1013.43 104.282 1007.47 104.928 1001.47 104.869C995.504 104.765 989.516 104.346 983.683 103.027C980.736 102.531 977.874 101.624 974.994 100.838C973.583 100.5 972.201 99.8784 970.801 99.3793C969.411 98.865 968.02 98.3379 966.625 97.798C972.372 99.2919 978.087 100.831 983.945 101.63L988.305 102.265L992.701 102.656C994.16 102.827 995.598 102.883 997.075 102.932C998.552 102.98 1000 103.113 1001.5 103.04C1007.35 103.126 1013.23 102.532 1019.02 101.677C1024.85 100.775 1030.59 99.4135 1036.17 97.3671Z" fill="#606060"/>
</g>
<g style="mix-blend-mode:multiply" opacity="0.2">
<path d="M1027.43 92.7272C1025.51 93.7119 1023.45 94.4033 1021.41 95.1331C1019.33 95.7093 1017.24 96.247 1015.1 96.6766C1010.85 97.5287 1006.53 97.9585 1002.16 97.9587C997.829 97.9136 993.5 97.6694 989.22 96.8213C987.097 96.4933 985.003 95.8824 982.891 95.3937C980.834 94.7759 978.803 94.0743 976.764 93.3342C980.992 94.1125 985.195 94.9746 989.437 95.3934C993.661 95.9343 997.938 96.1086 1002.19 96.1293C1006.44 96.15 1010.65 95.7796 1014.89 95.2871C1019.11 94.7177 1023.33 93.911 1027.43 92.7272Z" fill="#606060"/>
</g>
<g style="mix-blend-mode:multiply" opacity="0.2">
<path d="M1017.73 87.9861C1015.2 89.3968 1012.38 90.228 1009.55 90.7833C1006.7 91.3003 1003.8 91.4716 1000.9 91.4823C997.99 91.3778 995.124 91.1057 992.278 90.5124C990.889 90.2891 989.503 89.8668 988.093 89.5282C986.738 89.0605 985.352 88.6382 984.022 88.0866C986.864 88.4425 989.705 88.7984 992.495 89.0845C995.323 89.3635 998.137 89.5658 1000.92 89.6145C1003.74 89.6841 1006.54 89.5977 1009.33 89.3554C1012.13 89.0444 1014.93 88.7335 1017.73 87.9861Z" fill="#606060"/>
</g>
<g style="mix-blend-mode:multiply" opacity="0.2">
<path d="M997.749 177.114C995.294 177.798 992.77 178.099 990.239 178.361C987.694 178.546 985.114 178.539 982.551 178.41C977.458 178.106 972.36 177.128 967.536 175.467C962.704 173.766 957.949 171.616 953.798 168.641C951.609 167.294 949.671 165.583 947.716 163.995C946.704 163.227 945.848 162.232 944.976 161.359C944.068 160.439 943.188 159.528 942.336 158.625C946.285 161.795 950.195 164.972 954.531 167.437C958.818 170.069 963.392 172.094 968.094 173.738C972.797 175.383 977.74 176.388 982.691 176.996C987.68 177.596 992.732 177.669 997.749 177.114Z" fill="#606060"/>
</g>
<g style="mix-blend-mode:multiply" opacity="0.2">
<path d="M993.954 185.263C992.069 185.804 990.134 186.076 988.193 186.31C986.241 186.48 984.282 186.545 982.318 186.506C978.383 186.467 974.473 185.909 970.646 184.938C966.851 183.922 963.084 182.624 959.642 180.71C957.858 179.845 956.231 178.752 954.573 177.704C952.984 176.605 951.483 175.33 949.989 174.095C953.393 176.015 956.682 177.956 960.246 179.45C963.741 180.997 967.41 182.194 971.114 183.147C974.787 184.146 978.582 184.725 982.38 185.106C986.217 185.479 990.075 185.531 993.954 185.263Z" fill="#606060"/>
</g>
<g style="mix-blend-mode:multiply" opacity="0.2">
<path d="M992.375 192.731C989.864 193.545 987.239 193.943 984.61 194.104C981.982 194.265 979.342 194.15 976.745 193.829C974.102 193.477 971.509 192.957 969.013 192.102C966.492 191.331 964.14 190.173 961.874 188.839C964.412 189.488 966.88 190.189 969.397 190.723C971.903 191.272 974.427 191.699 976.969 192.003C979.489 192.338 982.066 192.544 984.621 192.634C987.183 192.763 989.77 192.808 992.375 192.731Z" fill="#606060"/>
</g>
<g style="mix-blend-mode:multiply" opacity="0.2">
<path d="M1023.85 118.811C1025.48 119.705 1026.94 120.986 1028.15 122.393C1029.39 123.793 1030.37 125.44 1031.16 127.2C1031.52 128.087 1031.8 128.987 1032.05 129.895C1032.18 130.862 1032.43 131.77 1032.44 132.72C1032.59 134.637 1032.22 136.529 1031.63 138.303C1031.49 136.424 1031.48 134.64 1031.08 132.888C1030.77 131.159 1030.26 129.466 1029.54 127.892C1028.2 124.645 1026.19 121.677 1023.85 118.811Z" fill="#606060"/>
</g>
<g style="mix-blend-mode:multiply" opacity="0.2">
<path d="M1016.7 120.546C1018.52 121.604 1020.1 123.101 1021.44 124.763C1022.81 126.418 1023.83 128.335 1024.59 130.339C1025.32 132.388 1025.79 134.525 1025.78 136.668C1025.9 138.83 1025.48 140.928 1024.82 142.953C1024.75 140.823 1024.78 138.795 1024.45 136.791C1024.21 134.773 1023.69 132.804 1023 130.946C1021.63 127.148 1019.43 123.74 1016.7 120.546Z" fill="#606060"/>
</g>
<g style="mix-blend-mode:multiply" opacity="0.2">
<path d="M1009.01 121.666C1010.74 123.335 1012.17 125.297 1013.38 127.378C1014.6 129.497 1015.6 131.696 1016.37 134.015C1017.11 136.301 1017.66 138.662 1017.9 141.078C1018.21 143.48 1018.1 145.92 1017.82 148.273C1017.47 145.916 1017.16 143.553 1016.66 141.263C1016.16 138.972 1015.56 136.741 1014.83 134.493C1014.12 132.283 1013.24 130.101 1012.26 127.978C1011.28 125.856 1010.25 123.702 1009.01 121.666Z" fill="#606060"/>
</g>
<g style="mix-blend-mode:multiply" opacity="0.2">
<path d="M964.756 121.778C963.269 121.89 961.771 121.726 960.329 121.432C958.887 121.139 957.495 120.678 956.081 120.102C953.413 118.961 950.757 117.222 949.179 114.653C950.467 115.41 951.703 116.098 952.932 116.747C954.23 117.344 955.498 117.987 956.782 118.507C959.366 119.624 962.044 120.605 964.756 121.778Z" fill="#606060"/>
</g>
<g style="mix-blend-mode:multiply" opacity="0.2">
<path d="M962.431 129.064C960.85 129.312 959.251 129.246 957.662 129.019C956.119 128.823 954.58 128.429 953.057 127.912C951.56 127.312 950.125 126.621 948.809 125.709C947.485 124.76 946.326 123.622 945.485 122.267C946.864 123.088 948.184 123.8 949.535 124.467C950.91 125.05 952.286 125.633 953.693 126.17C956.538 127.2 959.425 128.024 962.431 129.064Z" fill="#606060"/>
</g>
<g style="mix-blend-mode:multiply" opacity="0.2">
<path d="M958.144 137.778C956.678 138.005 955.155 137.925 953.721 137.67C952.24 137.384 950.847 136.923 949.503 136.295C948.152 135.628 946.864 134.87 945.771 133.879C944.602 132.901 943.673 131.721 942.929 130.468C944.218 131.225 945.352 132.011 946.588 132.699C947.786 133.393 949.015 134.043 950.268 134.608C952.788 135.816 955.382 136.773 958.144 137.778Z" fill="#606060"/>
</g>
<g style="mix-blend-mode:multiply" opacity="0.2">
<path d="M957.638 147.868C956.004 148.046 954.339 147.833 952.722 147.452C951.106 147.072 949.57 146.478 948.082 145.717C946.595 144.956 945.227 143.975 944.061 142.799C942.818 141.636 941.886 140.219 941.215 138.714C942.521 139.786 943.659 140.809 944.968 141.682C946.278 142.554 947.541 143.396 948.938 144.094C951.699 145.536 954.604 146.674 957.638 147.868Z" fill="#606060"/>
</g>
<g style="mix-blend-mode:multiply" opacity="0.2">
<path d="M1036.54 194.103C1034.52 195.185 1032.09 195.388 1029.8 194.973C1028.65 194.747 1027.55 194.391 1026.53 193.822C1025.53 193.291 1024.63 192.503 1023.88 191.647C1025.98 192.495 1027.94 193.249 1030.07 193.615C1032.13 194.034 1034.28 194.117 1036.54 194.103Z" fill="#606060"/>
</g>
<g style="mix-blend-mode:multiply" opacity="0.1">
<path d="M990.358 206.07L990.396 206.063C960.55 200.977 938.356 174.702 939.012 143.835L938.981 143.881C934.128 118.936 950.624 108.637 951.057 108.399C955.386 102.534 960.735 97.4753 966.792 93.4778C955.784 185.894 1014.4 195.153 1036.85 195.356C1031.34 199.294 1025.15 202.363 1018.49 204.367L1018.53 204.36C1018.53 204.36 1003.59 212.512 990.358 206.07Z" fill="#606060"/>
</g>
</svg>
