<svg width="36" height="36" viewBox="0 0 36 36" fill="none" xmlns="http://www.w3.org/2000/svg">
<path d="M17.6035 0.56875C17.7805 -0.154514 18.8089 -0.154516 18.9859 0.568748L22.1086 13.3316C22.1717 13.5893 22.3729 13.7906 22.6307 13.8536L35.3935 16.9763C36.1167 17.1533 36.1167 18.1817 35.3935 18.3587L22.6307 21.4814C22.3729 21.5444 22.1717 21.7457 22.1086 22.0034L18.9859 34.7662C18.8089 35.4895 17.7805 35.4895 17.6035 34.7662L14.4808 22.0034C14.4178 21.7457 14.2165 21.5444 13.9588 21.4814L1.19598 18.3587C0.472714 18.1817 0.472712 17.1533 1.19598 16.9763L13.9588 13.8536C14.2165 13.7906 14.4178 13.5893 14.4808 13.3316L17.6035 0.56875Z" fill="white"/>
</svg>
