<svg width="36" height="36" viewBox="0 0 36 36" fill="none" xmlns="http://www.w3.org/2000/svg">
<g clip-path="url(#clip0_2056_2468)">
<path d="M25.4533 18.5119C22.9723 16.5478 20.1977 15.7654 17.6405 16.309C15.0833 16.8526 12.8667 18.6958 11.3992 21.4992C10.08 24.0191 9.59457 26.9447 10.1006 29.3251C10.3463 30.4815 10.8871 31.2871 11.7077 31.7198C12.5177 32.1469 13.4674 32.1477 14.4809 31.9323C15.5594 31.703 16.7102 31.2289 17.8409 30.7629C18.8289 30.3558 19.7622 29.9712 20.5107 29.8121C21.1567 29.6748 22.1036 29.6503 23.1058 29.6243C25.4481 29.5637 28.103 29.4949 29.3177 27.9546C29.8951 27.2223 30.065 26.273 29.8227 25.133C29.3168 22.7526 27.6834 20.2774 25.4533 18.5119Z" fill="#302813"/>
<path d="M22.9039 5.52481C21.9551 4.61331 20.7909 4.22238 19.7097 4.4522C18.6284 4.68204 17.7239 5.51274 17.2279 6.73128C16.7723 7.85072 16.6799 9.21326 16.9679 10.5679C17.2558 11.9226 17.8943 13.1298 18.7659 13.9671C19.7147 14.8785 20.8789 15.2695 21.9601 15.0397C23.0414 14.8099 23.9459 13.9792 24.4419 12.7606C24.8975 11.6412 24.9899 10.2786 24.702 8.92398C24.414 7.56933 23.7755 6.36209 22.9039 5.52481Z" fill="#302813"/>
<path d="M14.122 7.39151C13.1733 6.48001 12.0091 6.08907 10.9278 6.3189C9.84656 6.54873 8.94201 7.37945 8.44606 8.59798C7.99045 9.71742 7.89807 11.08 8.18601 12.4346C8.47395 13.7893 9.11249 14.9964 9.98408 15.8338C10.9328 16.7453 12.097 17.1363 13.1783 16.9065C14.2596 16.6766 15.1641 15.8459 15.6601 14.6273C16.1157 13.5079 16.2081 12.1454 15.9201 10.7907C15.6321 9.43604 14.9936 8.2288 14.122 7.39151Z" fill="#302813"/>
<path d="M31.9427 12.2888C31.4409 11.3601 30.6637 10.773 29.7544 10.6356C29.0226 10.5252 28.2668 10.7309 27.6262 11.2151C26.7433 11.8822 26.1434 12.9998 25.9803 14.2812C25.847 15.3284 26.0235 16.3677 26.4775 17.2079C26.9792 18.1366 27.7564 18.7237 28.6658 18.861C28.9805 18.9086 29.2996 18.8976 29.6121 18.8312C30.0263 18.7431 30.4289 18.5576 30.7941 18.2816C31.6769 17.6145 32.2769 16.4969 32.44 15.2155L32.44 15.2155C32.5732 14.1684 32.3967 13.129 31.9427 12.2888Z" fill="#302813"/>
<path d="M9.19715 17.8485C8.52688 16.7442 7.52424 15.9673 6.44645 15.7169C5.66425 15.5352 4.89007 15.6547 4.26654 16.0532C3.49163 16.5486 3.02043 17.4011 2.93977 18.4535C2.86679 19.4058 3.12827 20.4271 3.67596 21.3295L3.67597 21.3295C4.3463 22.4338 5.34888 23.2107 6.42668 23.4611C6.87256 23.5646 7.31581 23.5704 7.73001 23.4824C8.04248 23.4159 8.33845 23.2961 8.60658 23.1248C9.38161 22.6294 9.85275 21.7769 9.93342 20.7245C10.0063 19.7723 9.7448 18.751 9.19715 17.8485Z" fill="#302813"/>
</g>
<defs>
<clipPath id="clip0_2056_2468">
<rect width="30" height="30" fill="white" transform="translate(0.209106 6.44641) rotate(-12)"/>
</clipPath>
</defs>
</svg>
