<svg width="24" height="24" viewBox="0 0 24 24" fill="none" xmlns="http://www.w3.org/2000/svg">
<path d="M14.7001 13.5C13.6001 11.5 13.2591 11 12.0001 11C10.7411 11 10.2641 11.755 9.16407 13.747C8.22207 15.45 6.31807 15.592 5.84307 17.038C5.74607 17.303 5.69807 17.715 5.70007 18C5.70007 19.176 6.48707 20 7.50007 20C8.75907 20 10.5001 19 12.0001 19C13.5001 19 15.2411 20 16.5001 20C17.5131 20 18.3001 19.177 18.3001 18C18.3001 17.715 18.2511 17.303 18.1541 17.038C17.6791 15.587 15.6421 15.203 14.7001 13.5Z" stroke="#FEC629" stroke-width="2" stroke-linecap="round" stroke-linejoin="round"/>
<path d="M20.1881 8.082C20.0596 8.0277 19.9215 7.99981 19.7821 8H19.7671C19.0321 8.012 18.2071 8.75 17.7741 9.866C17.2551 11.201 17.4941 12.566 18.3121 12.918C18.4411 12.973 18.5791 13 18.7181 13C19.4571 13 20.2931 12.258 20.7291 11.134C21.2451 9.799 21.0011 8.434 20.1881 8.082Z" stroke="#FEC629" stroke-width="2" stroke-linecap="round" stroke-linejoin="round"/>
<path d="M9.47407 9C9.52907 9 9.58307 9 9.63707 8.989C10.5811 8.861 11.1701 7.643 10.9571 6.267C10.7541 4.97 9.91007 4 9.02507 4C8.97007 4 8.91607 4 8.86207 4.011C7.91807 4.139 7.32907 5.357 7.54207 6.733C7.74607 8.026 8.59007 9 9.47507 9H9.47407Z" stroke="#FEC629" stroke-width="2" stroke-linecap="round" stroke-linejoin="round"/>
<path d="M16.4561 6.733C16.6701 5.357 16.0811 4.139 15.1361 4.011C15.0824 4.00357 15.0283 3.99989 14.9741 4C14.0891 4 13.2461 4.97 13.0441 6.267C12.8301 7.643 13.4191 8.861 14.3641 8.989C14.4181 8.996 14.4721 9 14.5261 9C15.4111 9 16.2561 8.026 16.4561 6.733Z" stroke="#FEC629" stroke-width="2" stroke-linecap="round" stroke-linejoin="round"/>
<path d="M5.69007 12.918C6.50607 12.566 6.74407 11.199 6.22607 9.866C5.79007 8.742 4.95507 8 4.21707 8C4.07707 8 3.94007 8.027 3.81007 8.082C2.99407 8.434 2.75607 9.801 3.27407 11.134C3.71007 12.258 4.54507 13 5.28307 13C5.42307 13 5.56007 12.973 5.69007 12.918Z" stroke="#FEC629" stroke-width="2" stroke-linecap="round" stroke-linejoin="round"/>
</svg>
