<svg width="191" height="268" viewBox="0 0 191 268" fill="none" xmlns="http://www.w3.org/2000/svg">
<path d="M101.875 154.7C103.481 150.771 100.701 146.675 101.157 144.499C101.58 142.318 105.032 135.536 100.33 131.875L100.13 131.722C95.319 128.199 89.7557 133.378 87.7602 134.373C85.7789 135.387 81.0809 133.837 77.7306 136.465C74.3803 139.093 75.3065 143.844 81.0174 145.764C86.6946 147.679 88.8971 149.572 92.0216 154.105C95.4093 159.043 100.25 158.644 101.875 154.7Z" fill="#EAD6B9"/>
<path d="M88.0376 120.058C86.9209 123.425 84.3186 125.602 82.234 124.904C80.1493 124.206 79.3647 120.932 80.4814 117.564C81.6121 114.217 84.2145 112.039 86.2991 112.737C88.3696 113.416 89.1683 116.71 88.0376 120.058Z" fill="#EAD6B9"/>
<path d="M118.88 147.69C116.013 149.79 112.663 150.066 111.357 148.299C110.051 146.532 111.304 143.394 114.137 141.289C117.004 139.188 120.373 138.899 121.679 140.665C122.985 142.432 121.732 145.57 118.88 147.69Z" fill="#EAD6B9"/>
<path d="M106.379 117.5C104.615 121.127 101.248 123.113 98.8578 121.95C96.4677 120.788 95.9359 116.914 97.7144 113.307C99.4591 109.694 102.826 107.709 105.236 108.857C107.626 110.019 108.124 113.888 106.379 117.5Z" fill="#EAD6B9"/>
<path d="M118.882 129.196C116.05 132.046 112.231 132.868 110.337 130.99C108.424 129.126 109.182 125.303 112 122.434C114.819 119.565 118.652 118.761 120.565 120.625C122.444 122.484 121.701 126.327 118.882 129.196Z" fill="#EAD6B9"/>
<path d="M113.97 256.437C115.576 252.508 112.796 248.411 113.252 246.235C113.675 244.054 117.127 237.273 112.425 233.611L112.225 233.458C107.414 229.935 101.85 235.114 99.855 236.109C97.8737 237.123 93.1757 235.573 89.8254 238.201C86.4751 240.829 87.4012 245.58 93.1122 247.5C98.7894 249.415 100.992 251.308 104.116 255.841C107.504 260.779 112.345 260.38 113.97 256.437Z" fill="#EAD6B9"/>
<path d="M100.132 221.794C99.0154 225.161 96.413 227.339 94.3284 226.641C92.2438 225.943 91.4592 222.668 92.5758 219.301C93.7066 215.953 96.309 213.776 98.3936 214.474C100.464 215.152 101.263 218.446 100.132 221.794Z" fill="#EAD6B9"/>
<path d="M130.974 249.426C128.107 251.527 124.757 251.802 123.452 250.035C122.146 248.269 123.398 245.131 126.231 243.025C129.098 240.925 132.468 240.635 133.773 242.402C135.079 244.168 133.827 247.306 130.974 249.426Z" fill="#EAD6B9"/>
<path d="M118.474 219.237C116.71 222.864 113.342 224.849 110.952 223.687C108.562 222.524 108.03 218.65 109.809 215.043C111.554 211.431 114.921 209.445 117.331 210.593C119.721 211.755 120.219 215.624 118.474 219.237Z" fill="#EAD6B9"/>
<path d="M130.977 230.932C128.144 233.782 124.325 234.605 122.432 232.727C120.519 230.862 121.277 227.04 124.095 224.17C126.913 221.301 130.747 220.498 132.66 222.362C134.539 224.221 133.795 228.063 130.977 230.932Z" fill="#EAD6B9"/>
<path d="M182.98 149.72C184.585 145.791 181.806 141.695 182.262 139.519C182.684 137.337 186.137 130.556 181.435 126.895L181.234 126.742C176.423 123.219 170.86 128.398 168.865 129.392C166.883 130.407 162.185 128.857 158.835 131.485C155.485 134.113 156.411 138.864 162.122 140.784C167.799 142.699 170.002 144.592 173.126 149.125C176.514 154.063 181.355 153.663 182.98 149.72Z" fill="#EAD6B9"/>
<path d="M169.142 115.078C168.025 118.445 165.423 120.622 163.338 119.924C161.254 119.226 160.469 115.952 161.586 112.584C162.717 109.236 165.319 107.059 167.404 107.757C169.474 108.435 170.273 111.73 169.142 115.078Z" fill="#EAD6B9"/>
<path d="M187.484 112.52C185.72 116.147 182.352 118.132 179.962 116.97C177.572 115.808 177.04 111.934 178.819 108.327C180.564 104.714 183.931 102.729 186.341 103.877C188.731 105.039 189.229 108.908 187.484 112.52Z" fill="#EAD6B9"/>
<path d="M199.987 124.216C197.154 127.066 193.335 127.888 191.442 126.01C189.529 124.146 190.287 120.323 193.105 117.454C195.923 114.584 199.757 113.781 201.67 115.645C203.549 117.504 202.805 121.346 199.987 124.216Z" fill="#EAD6B9"/>
<path d="M166.617 56.5213C168.222 52.5923 165.442 48.4956 165.899 46.3197C166.321 44.1385 169.774 37.3572 165.072 33.6959L164.871 33.5426C160.06 30.0195 154.497 35.199 152.502 36.1935C150.52 37.2076 145.822 35.6576 142.472 38.2858C139.122 40.914 140.048 45.6646 145.759 47.5848C151.436 49.4996 153.639 51.3929 156.763 55.9256C160.151 60.8638 164.992 60.4644 166.617 56.5213Z" fill="#EAD6B9"/>
<path d="M152.779 21.8786C151.662 25.246 149.06 27.4233 146.975 26.7254C144.891 26.0274 144.106 22.7527 145.223 19.3854C146.353 16.0375 148.956 13.8602 151.04 14.5582C153.111 15.2366 153.91 18.5308 152.779 21.8786Z" fill="#EAD6B9"/>
<path d="M183.621 49.5108C180.754 51.611 177.404 51.8864 176.098 50.1197C174.793 48.3531 176.045 45.2151 178.878 43.1094C181.745 41.0091 185.114 40.7196 186.42 42.4862C187.726 44.2529 186.473 47.3909 183.621 49.5108Z" fill="#EAD6B9"/>
<path d="M171.121 19.3213C169.356 22.948 165.989 24.9334 163.599 23.7712C161.209 22.609 160.677 18.7348 162.456 15.1276C164.2 11.5151 167.568 9.52972 169.977 10.6778C172.367 11.84 172.865 15.7088 171.121 19.3213Z" fill="#EAD6B9"/>
<path d="M183.624 31.0168C180.791 33.8665 176.972 34.6894 175.078 32.8111C173.165 30.947 173.923 27.1241 176.742 24.2548C179.56 21.3855 183.393 20.5822 185.306 22.4463C187.185 24.3051 186.442 28.1475 183.624 31.0168Z" fill="#EAD6B9"/>
</svg>
